<?xml version="1.0" encoding="UTF-8" standalone="no"?>
<!DOCTYPE svg PUBLIC "-//W3C//DTD SVG 1.1//EN" "http://www.w3.org/Graphics/SVG/1.1/DTD/svg11.dtd">
<svg width="100%" height="100%" viewBox="0 0 339 134" version="1.1" xmlns="http://www.w3.org/2000/svg" xmlns:xlink="http://www.w3.org/1999/xlink" xml:space="preserve" xmlns:serif="http://www.serif.com/" style="fill-rule:evenodd;clip-rule:evenodd;stroke-linejoin:round;stroke-miterlimit:2;">
    <g transform="matrix(1,0,0,1,-229.492,-233.078)">
        <g transform="matrix(15.0929,0,0,15.0929,-3696.22,-4263.12)">
            <path d="M260.515,305.874C260.392,305.677 260.369,305.433 260.453,305.216C260.537,304.999 260.719,304.835 260.943,304.772C261.15,304.714 261.314,304.669 261.314,304.669C261.338,304.949 261.454,305.185 261.662,305.377C261.87,305.569 262.15,305.665 262.502,305.665C262.774,305.665 262.988,305.601 263.144,305.473C263.3,305.345 263.378,305.185 263.378,304.993C263.378,304.657 263.15,304.441 262.694,304.345L261.83,304.153C261.326,304.041 260.938,303.833 260.666,303.529C260.394,303.225 260.258,302.865 260.258,302.449C260.258,301.937 260.466,301.495 260.882,301.123C261.298,300.751 261.806,300.565 262.406,300.565C262.79,300.565 263.13,300.621 263.426,300.733C263.722,300.845 263.952,300.991 264.116,301.171C264.117,301.171 264.117,301.171 264.117,301.171C264.3,301.373 264.366,301.654 264.292,301.916C264.217,302.178 264.013,302.382 263.751,302.457C263.597,302.501 263.486,302.533 263.486,302.533C263.454,302.309 263.352,302.107 263.18,301.927C263.008,301.747 262.75,301.657 262.406,301.657C262.166,301.657 261.966,301.723 261.806,301.855C261.646,301.987 261.566,302.145 261.566,302.329C261.566,302.657 261.762,302.861 262.154,302.941L263.042,303.121C263.586,303.241 264.002,303.457 264.29,303.769C264.578,304.081 264.722,304.457 264.722,304.897C264.722,305.385 264.528,305.819 264.14,306.199C263.752,306.579 263.21,306.769 262.514,306.769C262.114,306.769 261.756,306.709 261.44,306.589C261.124,306.469 260.876,306.315 260.696,306.127C260.648,306.076 260.584,305.985 260.515,305.874Z" style="fill-rule:nonzero;"/>
        </g>
        <g transform="matrix(-15.0929,0,0,17.6526,4357.15,-5047.88)">
            <path d="M267.482,306.589L267.482,306.589C266.72,306.589 266.102,306.061 266.102,305.409L266.102,300.745L266.103,300.745C266.865,300.745 267.482,301.273 267.482,301.925L267.482,306.589Z" style="fill-rule:nonzero;"/>
        </g>
        <g transform="matrix(15.0929,3.72812e-16,-1.4807e-16,-4.78537,-3696.22,1700.22)">
            <path d="M267.482,306.589L267.482,306.589C267.116,306.589 266.765,306.13 266.507,305.314C266.248,304.498 266.102,303.391 266.102,302.236L266.102,300.745L266.275,300.745C266.595,300.745 266.902,301.146 267.129,301.86C267.355,302.574 267.482,303.543 267.482,304.553L267.482,306.589Z" style="fill-rule:nonzero;"/>
        </g>
        <g transform="matrix(-15.0929,0,0,15.0929,4447.32,-4263.12)">
            <path d="M270.674,305.197C270.674,305.966 270.051,306.589 269.283,306.589L269.282,306.589L269.282,299.293C269.282,298.524 269.906,297.901 270.674,297.901L270.674,297.901L270.674,305.197Z" style="fill-rule:nonzero;"/>
        </g>
        <g transform="matrix(15.0929,0,0,15.0929,-3702.22,-4263.12)">
            <path d="M272.09,305.005C272.09,304.509 272.252,304.111 272.576,303.811C272.9,303.511 273.326,303.321 273.854,303.241L275.354,303.013C275.642,302.973 275.786,302.833 275.786,302.593C275.786,302.329 275.694,302.115 275.51,301.951C275.326,301.787 275.05,301.705 274.682,301.705C274.33,301.705 274.05,301.803 273.842,301.999C273.634,302.195 273.514,302.449 273.482,302.761C273.482,302.761 273.432,302.749 273.352,302.731C273.009,302.654 272.741,302.388 272.659,302.047C272.577,301.705 272.696,301.347 272.966,301.123C272.966,301.123 272.966,301.123 272.966,301.123C273.414,300.751 273.982,300.565 274.67,300.565C275.518,300.565 276.144,300.769 276.548,301.177C276.952,301.585 277.154,302.109 277.154,302.749L277.154,305.653C277.154,305.901 277.056,306.139 276.88,306.315C276.705,306.49 276.467,306.589 276.219,306.589C276.051,306.589 275.93,306.589 275.93,306.589C275.89,306.469 275.87,306.221 275.87,305.845C275.486,306.461 274.886,306.769 274.07,306.769C273.478,306.769 273,306.595 272.636,306.247C272.272,305.899 272.09,305.485 272.09,305.005ZM274.334,305.677C274.766,305.677 275.116,305.559 275.384,305.323C275.652,305.087 275.786,304.701 275.786,304.165L275.786,303.901L274.262,304.129C273.742,304.217 273.482,304.481 273.482,304.921C273.482,305.129 273.558,305.307 273.71,305.455C273.862,305.603 274.07,305.677 274.334,305.677Z" style="fill-rule:nonzero;"/>
        </g>
        <g transform="matrix(15.0929,0,0,15.0929,-3702.22,-4263.12)">
            <path d="M278.676,305.783C278.57,305.603 278.554,305.384 278.632,305.191C278.71,304.997 278.874,304.851 279.075,304.795C279.32,304.727 279.53,304.669 279.53,304.669C279.554,304.949 279.67,305.185 279.878,305.377C280.086,305.569 280.366,305.665 280.718,305.665C280.99,305.665 281.204,305.601 281.36,305.473C281.516,305.345 281.594,305.185 281.594,304.993C281.594,304.657 281.366,304.441 280.91,304.345L280.046,304.153C279.542,304.041 279.154,303.833 278.882,303.529C278.61,303.225 278.474,302.865 278.474,302.449C278.474,301.937 278.682,301.495 279.098,301.123C279.514,300.751 280.022,300.565 280.622,300.565C281.006,300.565 281.346,300.621 281.642,300.733C281.938,300.845 282.168,300.991 282.332,301.171C282.333,301.171 282.333,301.171 282.333,301.171C282.516,301.373 282.582,301.654 282.508,301.916C282.433,302.178 282.229,302.382 281.967,302.457C281.813,302.501 281.702,302.533 281.702,302.533C281.67,302.309 281.568,302.107 281.396,301.927C281.224,301.747 280.966,301.657 280.622,301.657C280.382,301.657 280.182,301.723 280.022,301.855C279.862,301.987 279.782,302.145 279.782,302.329C279.782,302.657 279.978,302.861 280.37,302.941L281.258,303.121C281.802,303.241 282.218,303.457 282.506,303.769C282.794,304.081 282.938,304.457 282.938,304.897C282.938,305.385 282.744,305.819 282.356,306.199C281.968,306.579 281.426,306.769 280.73,306.769C280.33,306.769 279.972,306.709 279.656,306.589C279.34,306.469 279.092,306.315 278.912,306.127C278.851,306.063 278.764,305.933 278.676,305.783Z" style="fill-rule:nonzero;"/>
        </g>
    </g>
</svg>
